<svg width="1440" height="1024" viewBox="0 0 1440 1024" fill="none" xmlns="http://www.w3.org/2000/svg">
<g clip-path="url(#clip0_70_379)">
<rect width="1440" height="1024" fill="#1C1124"/>
<path fill-rule="evenodd" clip-rule="evenodd" d="M1264.08 -15.8099C1333.98 -29.8806 1358.01 84.4575 1408.31 134.988C1447.81 174.666 1525.29 192.16 1526.83 248.125C1528.47 307.833 1447.32 332.267 1415.1 382.564C1394.69 414.438 1403.61 461.309 1374.66 485.695C1345.09 510.608 1301.82 518.232 1264.08 509.775C1229.45 502.013 1218.73 452.329 1184.47 443.068C1112.91 423.724 993.267 499.391 967.927 429.723C943.017 361.236 1084.03 347.129 1128.61 289.478C1151.09 260.405 1141.76 219.237 1156.66 185.645C1188.31 114.34 1187.61 -0.414772 1264.08 -15.8099Z" fill="#C9FDD7"/>
<path fill-rule="evenodd" clip-rule="evenodd" d="M271.033 436.657C331.936 466.095 317.961 559.917 357.755 614.617C379.49 644.495 422.746 648.407 445.979 677.136C479.511 718.599 520.576 761.426 519.596 814.742C518.517 873.466 485.593 929.622 440.643 967.427C393.905 1006.74 332.073 1021.79 271.033 1023.8C208.363 1025.86 128.38 1030.71 93.1116 978.867C55.9947 924.305 136.578 846.652 109.567 786.443C76.1802 712.017 -60.6736 705.927 -65.8486 624.52C-70.3841 553.171 27.9901 520.221 90.4305 485.401C146.256 454.269 213.485 408.839 271.033 436.657Z" fill="#7984EE"/>
<path fill-rule="evenodd" clip-rule="evenodd" d="M1073.89 27.3239C1063.17 1.42291 995.044 57.1634 954.532 71.425C922.721 82.6238 892.946 71.8611 862.281 101.817C829.566 133.776 837.629 168.239 818.878 203.941C806.995 226.566 779.31 249.657 773.714 270.451C767.997 291.694 775.219 307.139 789.685 312.414C802.962 317.255 832.638 293.106 846.628 297.038C875.851 305.249 866.303 377.564 910.619 346.397C954.183 315.759 924.84 271.25 944.326 228.327C954.152 206.682 978.86 186.791 993.116 164.674C1023.38 117.726 1085.61 55.6629 1073.89 27.3239Z" fill="#7481CF"/>
<path fill-rule="evenodd" clip-rule="evenodd" d="M693.08 322.616C733.963 341.723 730.472 411.244 772.238 428.335C839.824 455.992 929.608 395.274 985.499 442.275C1040.68 488.677 1057.19 579.81 1033.22 647.807C1009.33 715.592 930.533 742.859 867.414 777.238C812.484 807.157 753.39 849.661 693.08 833.073C634.191 816.877 610.134 748.499 576.814 697.313C555.101 663.957 550.656 625.144 534.151 588.926C514.459 545.716 471.288 512.615 471.005 465.131C470.677 410.104 486.212 346.021 532.523 316.301C578.731 286.647 643.34 299.369 693.08 322.616Z" fill="#F3DCAD"/>
<path fill-rule="evenodd" clip-rule="evenodd" d="M283.517 -40.5528C343.601 -29.6766 343.646 67.8001 397.008 97.4791C464.362 134.94 584.926 75.3137 617.461 145.181C648.21 211.212 540.425 262.524 502.95 324.984C476.599 368.904 473.223 427.709 430.763 456.353C388.787 484.67 331.411 489.449 283.517 473.016C240.953 458.412 225.587 408.511 195.035 375.471C172.293 350.878 136.336 336.686 127.556 304.361C118.898 272.48 149.141 243.385 150.193 210.366C151.943 155.431 109.864 98.7069 135.654 50.1696C163.467 -2.17599 225.189 -51.1111 283.517 -40.5528Z" fill="#6892D5"/>
<path fill-rule="evenodd" clip-rule="evenodd" d="M1271.18 624.599C1314.75 634.93 1366.36 588.764 1401.95 615.947C1437.68 643.238 1409.23 704.202 1428.54 744.803C1452.98 796.194 1526.92 822.167 1527.06 879.071C1527.2 935.866 1479.82 987.671 1429.2 1013.42C1381.06 1037.92 1324.65 1016.9 1271.18 1009.25C1226.04 1002.8 1185.99 987.398 1142.9 972.5C1077.2 949.788 978.227 964.097 953.088 899.287C928.438 835.737 1022.33 786.684 1046.03 722.776C1068.15 663.162 1027.7 566.448 1085.99 541.033C1149.63 513.284 1203.63 608.583 1271.18 624.599Z" fill="#AB658F"/>
</g>
<defs>
<clipPath id="clip0_70_379">
<rect width="1440" height="1024" fill="white"/>
</clipPath>
</defs>
</svg>
