<svg width="1440" height="895" viewBox="0 0 1440 895" fill="none" xmlns="http://www.w3.org/2000/svg">
<g clip-path="url(#clip0_70_386)">
<rect width="1440" height="1024" fill="#1C1124"/>
<path fill-rule="evenodd" clip-rule="evenodd" d="M1103.08 685.857C1172.98 671.786 1197.01 456.124 1247.31 506.654C1286.81 546.333 1364.29 563.826 1365.83 619.792C1367.47 679.499 1286.32 703.934 1254.1 754.231C1233.69 786.105 1242.61 832.976 1213.66 857.362C1184.09 882.275 1140.82 889.899 1103.08 881.441C1068.45 873.68 1057.73 823.995 1023.47 814.735C951.909 795.39 832.267 871.058 806.927 801.39C782.017 732.903 923.031 718.795 967.61 661.144C990.092 632.071 980.757 590.904 995.664 557.312C1027.31 486.006 1026.61 701.252 1103.08 685.857Z" fill="#C9FDD7"/>
<path fill-rule="evenodd" clip-rule="evenodd" d="M703.514 37.3749C764.417 66.8133 750.442 160.635 790.236 215.336C811.972 245.213 855.227 249.125 878.46 277.854C911.992 319.317 953.057 362.144 952.077 415.46C950.998 474.185 918.074 530.34 873.124 568.145C826.386 607.456 764.554 622.51 703.514 624.52C640.845 626.583 560.861 631.431 525.593 579.586C488.476 525.023 569.059 447.371 542.049 387.161C508.661 312.735 371.808 306.645 366.633 225.238C362.097 153.889 460.471 120.939 522.912 86.1189C578.737 54.9875 645.966 9.55748 703.514 37.3749Z" fill="#7984EE"/>
<path fill-rule="evenodd" clip-rule="evenodd" d="M1405.89 -14.6761C1395.17 -40.5771 1327.04 15.1634 1286.53 29.425C1254.72 40.6238 1224.95 29.8611 1194.28 59.8169C1161.57 91.7755 1169.63 126.239 1150.88 161.941C1139 184.566 1111.31 207.657 1105.71 228.451C1100 249.694 1107.22 265.139 1121.69 270.414C1134.96 275.255 1164.64 251.106 1178.63 255.038C1207.85 263.249 1198.3 335.564 1242.62 304.397C1286.18 273.759 1256.84 229.25 1276.33 186.327C1286.15 164.682 1310.86 144.791 1325.12 122.674C1355.38 75.7259 1417.61 13.6629 1405.89 -14.6761Z" fill="#7481CF"/>
<path fill-rule="evenodd" clip-rule="evenodd" d="M801.08 111.616C841.963 130.723 838.472 200.244 880.238 217.335C947.824 244.992 1037.61 184.274 1093.5 231.275C1148.68 277.677 1165.19 368.81 1141.22 436.807C1117.33 504.592 1038.53 531.859 975.414 566.238C920.484 596.157 861.39 638.661 801.08 622.073C742.191 605.877 718.134 537.499 684.814 486.313C663.101 452.957 658.656 414.144 642.151 377.926C622.459 334.716 579.288 301.615 579.005 254.131C578.677 199.104 594.212 135.021 640.523 105.301C686.731 75.6475 751.34 88.3691 801.08 111.616Z" fill="#F3DCAD"/>
<path fill-rule="evenodd" clip-rule="evenodd" d="M145.517 56.4472C205.601 67.3234 205.646 164.8 259.008 194.479C326.362 231.94 446.926 172.314 479.461 242.181C510.21 308.212 402.425 359.524 364.95 421.984C338.599 465.904 335.223 524.709 292.763 553.353C250.787 581.67 193.411 586.449 145.517 570.016C102.953 555.412 87.587 505.511 57.0347 472.471C34.2927 447.878 -1.6641 433.686 -10.4436 401.361C-19.1022 369.48 11.1413 340.385 12.1932 307.366C13.9432 252.431 -28.136 195.707 -2.34612 147.17C25.4673 94.824 87.1889 45.8889 145.517 56.4472Z" fill="#6892D5"/>
<path fill-rule="evenodd" clip-rule="evenodd" d="M399.183 600.599C442.755 610.93 494.364 564.764 529.949 591.947C565.675 619.238 537.235 680.202 556.54 720.803C580.975 772.194 654.92 798.167 655.06 855.071C655.199 911.866 607.82 963.671 557.2 989.424C509.06 1013.92 452.652 992.895 399.183 985.252C354.044 978.8 313.993 963.398 270.898 948.5C205.199 925.788 106.227 940.097 81.0885 875.287C56.4382 811.737 150.326 762.684 174.033 698.776C196.148 639.162 155.705 542.448 213.988 517.033C277.626 489.284 331.632 584.583 399.183 600.599Z" fill="#AB658F"/>
</g>
<defs>
<clipPath id="clip0_70_386">
<rect width="1440" height="1024" fill="white"/>
</clipPath>
</defs>
</svg>
